<svg width="72" height="32" fill="none" xmlns="http://www.w3.org/2000/svg"><path fill-rule="evenodd" clip-rule="evenodd" d="M0 10.003v5.003h14.685c1.707 0 3.888-1.573 3.888-4.175 0-1.046.402-1.729-.832-3.113L15.862 5.5c-1.076-1 .129-1 1.033-1h6.2v10.506h4.917V4.5h6.628V0H13.18c-2.612 0-3.888 2.498-3.817 3.8.073 1.3.313 2.936 2.482 4.902 1.98 1.793-.98 1.301-1.277 1.301H0ZM45.513 0H37.58l-4.447 15.007h4.95l.802-2.102h5.221l.775 2.102h4.848L45.513 0ZM39.99 9.303l1.707-5.504 1.607 5.504H39.99Zm25.404.7c-1.908 0-1.908-.7-1.908-.7 1.635 0 3.084-2.374 3.084-4.803 0-2.43-2.38-4.5-4.29-4.5H51.609v15.007h5.423v-5.003s2.31 2.701 3.514 3.802c1.205 1.1 1.305 1.2 2.94 1.2h8.513v-5.002h-6.604Zm-4.92-3.502h-3.442V3.8h3.442c1.578 0 1.85 2.702 0 2.702ZM0 16.907h5.548l1.406 5.004 1.305-5.004h5.824l1.506 5.004 1.507-5.004h4.82l-4.42 15.01H13.08l-1.936-7.105-2.181 7.105H4.443L0 16.907Zm33.301.087h-7.933L20.922 32h4.948l.804-2.1h5.221l.775 2.1h4.849L33.3 16.994Zm-5.522 9.302 1.707-5.503 1.606 5.503H27.78Zm37.715-4.885c-.903 0-1.887.105-.81 1.105l1.878 2.218c1.234 1.385 1.214 1.962 1.214 3.009 0 2.602-2.583 4.174-4.29 4.174l-11.864.08c-1.635 0-1.735-.1-2.94-1.2-1.205-1.101-3.515-3.803-3.515-3.803v5.003h-5.422V16.99h10.672c1.908 0 4.29 2.07 4.29 4.5s-1.45 4.803-3.085 4.803c0 0 .72.72 1.924.72 1.206 0 5.845.005 5.845.005.297 0 3.256.492 1.277-1.301-2.17-1.966-2.41-3.602-2.482-4.902-.072-1.301 1.056-3.908 3.666-3.908H72v4.503h-6.506ZM48.61 23.49h-3.442V20.79h3.442c1.579 0 1.851 2.702 0 2.702Z" fill="#FFC700"/></svg>