<svg width="37" height="51" viewBox="0 0 37 51" fill="none" xmlns="http://www.w3.org/2000/svg">
<path d="M35.9089 27.9123C35.3089 27.2544 34.343 27.0882 33.5588 27.5161L26.6178 31.2894C26.1092 31.5674 25.5035 31.5592 24.9997 31.269C24.496 30.9797 24.1862 30.4596 24.1699 29.8792L23.486 5.28541C23.486 3.90863 22.3799 2.80247 21.0202 2.80247C19.6597 2.80247 18.5536 3.90863 18.5536 5.26829V26.0089C18.5536 26.3545 18.2732 26.6349 17.9275 26.6349C17.5819 26.6349 17.3015 26.3545 17.3015 26.0089V5.26829V2.46582C17.3015 1.10615 16.1953 0 14.8357 0C13.4752 0 12.369 1.10616 12.369 2.46582V6.07366V24.9704C12.369 25.316 12.0886 25.5964 11.743 25.5964C11.3974 25.5964 11.117 25.316 11.117 24.9704V6.07366C11.117 4.71319 10.0108 3.60703 8.65116 3.60703C7.29068 3.60703 6.18452 4.71319 6.18452 6.07366V9.33752V26.0089C6.18452 26.3545 5.9041 26.6349 5.55849 26.6349C5.21287 26.6349 4.93246 26.3545 4.93246 26.0089V9.33751C4.93246 7.97784 3.8263 6.87169 2.46664 6.87169C1.10616 6.87169 0 7.97785 0 9.33751L0.95617 45.089C1.03687 48.123 3.47742 50.5 6.51221 50.5H21.8084C23.8471 50.5 25.7187 49.3873 26.692 47.5948L36.1787 30.136C36.5708 29.4138 36.4623 28.5204 35.9089 27.9123ZM13.2926 47.0055C8.68539 47.0055 4.93653 43.2566 4.93653 38.6486C4.93653 34.0947 8.65824 30.2917 13.2926 30.2917C17.9552 30.2917 21.6495 34.1304 21.6495 38.6486C21.6495 43.2566 17.9006 47.0055 13.2926 47.0055Z" fill="#FFC700"/>
</svg>
