<svg width="60" height="60" viewBox="0 0 60 60" fill="none" xmlns="http://www.w3.org/2000/svg">
<path d="M4.07044 4H1.60095L0.366211 30.3L1.60095 56.6H4.07044L5.05823 34.992L14.8127 36.7207V23.8793L5.05823 25.608L4.07044 4Z" fill="#FFC700"/>
<path d="M58.3992 4H55.9298L54.942 25.608L45.1875 23.8793V36.7207L54.942 34.992L55.9298 56.6H58.3992L59.634 30.3L58.3992 4Z" fill="#FFC700"/>
<path d="M24.9376 15.6064L17.2822 21.0393V39.3135L24.9376 44.7464H35.186L42.8414 39.3135V21.1628L35.186 15.7299H24.9376V15.6064ZM37.6555 30.2999C37.6555 34.498 34.1982 37.9553 30.0001 37.9553C25.8019 37.9553 22.3447 34.498 22.3447 30.2999C22.3447 26.1018 25.8019 22.6445 30.0001 22.6445C34.1982 22.6445 37.6555 26.1018 37.6555 30.2999Z" fill="#FFC700"/>
<path d="M30.0001 35.486C32.8642 35.486 35.186 33.1642 35.186 30.3001C35.186 27.436 32.8642 25.1142 30.0001 25.1142C27.136 25.1142 24.8142 27.436 24.8142 30.3001C24.8142 33.1642 27.136 35.486 30.0001 35.486Z" fill="#FFC700"/>
</svg>
