<svg width="41" height="49" viewBox="0 0 41 49" fill="none" xmlns="http://www.w3.org/2000/svg">
<path d="M36.6001 10.875C36.6001 6.075 32.8001 1.475 28.0001 0.675C22.7001 -0.225 17.4001 -0.225 12.2001 0.675C7.5001 1.475 3.6001 6.075 3.6001 10.875V13.875H36.6001V10.875Z" fill="#FFC700"/>
<path d="M40.2 26.5751V21.3751C40.2 18.9751 37.6 18.5751 36.7 17.9751H36.6V16.4751H3.6V17.9751H3.5L1.6 18.8751C0.6 19.3751 0 20.2751 0 21.3751V26.5751C0 27.6751 0.6 28.5751 1.6 29.0751L3.5 29.9751C3.2 31.7751 2.3 33.4751 1 34.8751C0.5 35.3751 0.5 36.1751 1 36.7751L3.2 39.0751C4 39.8751 3.9 40.3751 5.5 44.8751C5.9 45.9751 7.1 46.6751 8.2 46.3751C10.2 45.9751 12 45.5751 13.8 45.3751C14.4 47.0751 15.9 48.0751 17.5 48.0751H22.7C24.4 48.0751 25.9 47.0751 26.5 45.3751C28.3 45.5751 30.2 45.9751 32.1 46.3751C33.3 46.6751 34.5 45.9751 34.8 44.8751C35.3 43.2751 36 41.1751 36.4 40.1751C36.7 39.1751 37.3 38.8751 39.3 36.7751C39.8 36.2751 39.8 35.4751 39.3 34.8751C38 33.5751 37.1 31.8751 36.8 29.9751C37.6 29.3751 40.2 28.9751 40.2 26.5751ZM3.6 27.8751L2.4 27.2751C2.1 27.1751 1.9 26.8751 1.9 26.4751V21.2751C1.9 20.9751 2.1 20.6751 2.4 20.4751L3.6 19.9751V27.8751ZM7 20.8751C6.7 20.1751 7.2 19.3751 7.8 19.3751H16.9C17.6 19.3751 18 20.1751 17.7 20.8751C16.7 23.2751 14.6 24.7751 12.3 24.7751C10 24.7751 8 23.2751 7 20.8751ZM10 42.1751C8.9 42.1751 8 41.2751 8 40.1751C8 39.0751 8.9 38.1751 10 38.1751C11.1 38.1751 12 39.0751 12 40.1751C12 41.2751 11.1 42.1751 10 42.1751ZM22.7 46.0751H17.5C15.9 46.0751 14.9 44.2751 15.8 42.8751L18.4 39.0751C19.2 37.8751 20.9 37.8751 21.7 39.0751L24.3 42.8751C25.3 44.1751 24.3 46.0751 22.7 46.0751ZM27.8 32.5751C27.5 32.9751 26.9 33.0751 26.4 32.7751C20 27.6751 14 32.5751 13.7 32.7751C13.3 33.0751 12.7 33.0751 12.3 32.6751C12 32.2751 12 31.6751 12.4 31.2751C12.5 31.1751 19.8 25.0751 27.5 31.2751C28.1 31.4751 28.1 32.1751 27.8 32.5751ZM30.2 42.1751C29.1 42.1751 28.2 41.2751 28.2 40.1751C28.2 39.0751 29.1 38.1751 30.2 38.1751C31.3 38.1751 32.2 39.0751 32.2 40.1751C32.1 41.2751 31.2 42.1751 30.2 42.1751ZM33.2 20.8751C32.2 23.2751 30.1 24.7751 27.8 24.7751C25.5 24.7751 23.4 23.2751 22.4 20.8751C22.1 20.1751 22.6 19.3751 23.2 19.3751H32.3C33 19.3751 33.5 20.1751 33.2 20.8751ZM38.3 26.5751C38.3 27.3751 37.4 27.4751 36.6 27.8751V19.9751C37.3 20.3751 38.3 20.4751 38.3 21.2751V26.5751Z" fill="#FFC700"/>
</svg>
