<svg aria-hidden="true" style="position:absolute;width:0;height:0;overflow:hidden" xmlns="http://www.w3.org/2000/svg"><defs><symbol id="icon-close" viewBox="0 0 32 32"><path d="M32 3.223 28.777 0 16 12.777 3.223 0 0 3.223 12.777 16 0 28.777 3.223 32 16 19.223 28.777 32 32 28.777 19.223 16 32 3.223z"/></symbol><symbol id="icon-hand" viewBox="0 0 23 32"><path d="M22.531 17.514a1.21 1.21 0 0 0-1.475-.249l-4.355 2.368c-.319.174-.699.169-1.015-.013s-.51-.508-.521-.872l-.429-15.431c0-.864-.694-1.558-1.547-1.558s-1.548.694-1.548 1.547V16.32a.393.393 0 0 1-.786 0V1.548c0-.853-.694-1.547-1.547-1.547S7.76.695 7.76 1.548v14.121a.393.393 0 0 1-.786 0V3.812c0-.854-.694-1.548-1.547-1.548s-1.548.694-1.548 1.548V16.32a.393.393 0 0 1-.786 0V5.86c0-.853-.694-1.547-1.547-1.547S-.002 5.007-.002 5.86l.6 22.432a3.469 3.469 0 0 0 3.486 3.395h9.598a3.483 3.483 0 0 0 3.064-1.823l5.952-10.955a1.214 1.214 0 0 0-.169-1.395zM8.34 29.494a5.25 5.25 0 0 1-5.243-5.244c0-2.857 2.335-5.244 5.243-5.244 2.926 0 5.244 2.409 5.244 5.244a5.25 5.25 0 0 1-5.244 5.244z"/></symbol><symbol id="icon-instagram" viewBox="0 0 32 32"><path  d="M9.28 0h13.44C27.84 0 32 4.16 32 9.28v13.44A9.281 9.281 0 0 1 22.72 32H9.28C4.16 32 0 27.84 0 22.72V9.28A9.281 9.281 0 0 1 9.28 0zm-.32 3.2A5.76 5.76 0 0 0 3.2 8.96v14.08a5.756 5.756 0 0 0 5.76 5.76h14.08a5.76 5.76 0 0 0 5.76-5.76V8.96a5.756 5.756 0 0 0-5.76-5.76H8.96zM24.4 5.6a2 2 0 1 1-.001 4.001A2 2 0 0 1 24.4 5.6zM16 8a8 8 0 1 1 0 16 8 8 0 0 1 0-16zm0 3.2a4.8 4.8 0 1 0 0 9.6 4.8 4.8 0 0 0 0-9.6z"/></symbol><symbol id="icon-jet" viewBox="0 0 32 32"><path  d="M2.171 2.133H.854L.195 16.16l.659 14.027h1.317l.527-11.524 5.202.922v-6.849l-5.202.922-.527-11.524zM31.146 2.133h-1.317l-.527 11.524-5.202-.922v6.849l5.202-.922.527 11.524h1.317l.659-14.027-.659-14.027zM13.3 8.323l-4.083 2.898v9.746l4.083 2.898h5.466l4.083-2.898v-9.68l-4.083-2.898H13.3v-.066zm6.783 7.837c0 2.239-1.844 4.083-4.083 4.083s-4.083-1.844-4.083-4.083 1.844-4.083 4.083-4.083 4.083 1.844 4.083 4.083z"/><path  d="M16 18.926a2.766 2.766 0 1 0 .001-5.531A2.766 2.766 0 0 0 16 18.926z"/></symbol><symbol id="icon-logo" viewBox="0 0 72 32"><path  d="M0 10.003h10.568c.297 0 3.256.492 1.277-1.301-2.17-1.966-2.41-3.603-2.482-4.903S10.568 0 13.179 0h21.46v4.5h-6.627v10.507h-4.917V4.5h-6.2c-.904 0-2.109 0-1.033 1.001l1.878 2.218c1.234 1.384.833 2.067.833 3.113 0 2.602-2.181 4.175-3.888 4.175H0v-5.003zM45.513 0H37.58l-4.447 15.007h4.949l.803-2.101h5.221l.775 2.101h4.848L45.513 0zM39.99 9.303l1.707-5.504 1.607 5.504H39.99zm25.404.7c-1.908 0-1.908-.7-1.908-.7 1.635 0 3.084-2.373 3.084-4.803S64.189 0 62.28 0H51.608v15.006h5.423v-5.003s2.309 2.702 3.514 3.802 1.305 1.201 2.941 1.201h8.513v-5.003h-6.604zm-4.92-3.502h-3.442V3.799h3.442c1.578 0 1.851 2.702 0 2.702zM0 16.907l4.443 15.01h4.518l2.181-7.105 1.936 7.105h4.418l4.418-15.01h-4.82l-1.506 5.004-1.506-5.004H8.258l-1.305 5.004-1.406-5.004H-.001zm33.301.087h-7.933L20.921 32h4.949l.803-2.101h5.222L32.67 32h4.848L33.3 16.994zm-5.522 9.302 1.707-5.504 1.607 5.504h-3.314zm37.715-4.885H72v-4.503H61.852c-2.61 0-3.739 2.607-3.666 3.908s.312 2.936 2.482 4.902c1.979 1.793-.98 1.301-1.277 1.301 0 0-4.639-.005-5.845-.005s-1.924-.721-1.924-.721c1.636 0 3.085-2.373 3.085-4.803s-2.382-4.5-4.29-4.5H39.745v15.006h5.422v-5.003s2.31 2.702 3.514 3.803 1.305 1.2 2.94 1.2l11.865-.079c1.707 0 4.29-1.573 4.29-4.174 0-1.047.02-1.624-1.214-3.009l-1.879-2.218c-1.077-1-.092-1.105.811-1.105zm-16.885 2.08h-3.443v-2.702h3.443c1.578 0 1.851 2.702 0 2.702z"/></symbol><symbol id="icon-robot" viewBox="0 0 38 32"><path d="M38.24 4.16 33.2 2.48V0H21.52v2.48l-5.04 1.68v5.68h21.76V4.16zM29.36 16.16l-.32 2c.24-.08.56-.16.88-.16.64 0 1.2.16 1.68.48l.4-2.4h-2.64v.08zM29.12 24.16l.8 3.04h2.64l-.96-3.52c-.72.56-1.76.72-2.48.48zM32.64 28.72h-2.72c-.48 0-.8.4-.8.8v.96h4.4v-.96c0-.48-.4-.8-.88-.8zM23.44 28.88h-2.72c-.48 0-.8.4-.8.8v.96h4.4v-.96c0-.4-.4-.8-.88-.8zM31.36 21.12c0-.88-.72-1.52-1.52-1.52-.88 0-1.52.72-1.52 1.52s.64 1.52 1.52 1.52c.88.08 1.52-.64 1.52-1.52zM14.88 20.64v-2.08l-1.2 1.04c.4.4.72.96.8 1.52.16-.16.24-.32.4-.48zM19.68 24.64c-.48.64-1.2 1.04-2 1.12H17.2c-.8 0-1.52-.32-2.08-.8l-.56 3.12h2.64l.48-2.32 2.08 1.44h3.68l-3.76-2.56zM11.52 20.24c-.88 0-1.52.72-1.52 1.52 0 .88.72 1.52 1.52 1.52.88 0 1.52-.72 1.52-1.52 0-.72-.64-1.52-1.52-1.52zM34.08 25.76l.8 3.04h2.64l-.96-3.52c-.8.56-1.76.64-2.48.48z"/><path d="M18.8 20c0-.08.4-1.92.32-1.76l.4-2.08 2.64-1.6h10.4l1.92 1.68-.32 1.76-.32 1.68c.24-.08.56-.16.88-.16.64 0 1.2.16 1.68.48v-.16l.4-2.24 1.44-3.12v-3.2H16.48c0 .16-.24 6.32-.32 8.4.88-.24 1.84-.16 2.64.32zM37.6 30.24h-2.72c-.48 0-.8.4-.8.8V32h4.32v-.96c0-.4-.4-.8-.8-.8zM17.36 29.76h-2.72c-.48 0-.8.4-.8.8v.96h4.4v-.96c-.08-.4-.4-.8-.88-.8zM36.32 22.72c0-.88-.72-1.52-1.52-1.52-.88 0-1.52.72-1.52 1.52s.64 1.52 1.52 1.52c.8 0 1.52-.72 1.52-1.52zM17.2 24.24c.88 0 1.52-.72 1.52-1.52 0-2-3.12-2.08-3.12 0 .08.88.8 1.52 1.6 1.52zM0 7.2v2.64h9.44V3.68H3.52L0 7.2zm5.52-2.24c1.2 0 2.24.96 2.24 2.24S6.8 9.44 5.52 9.44c-1.2 0-2.24-.96-2.24-2.24s1.04-2.24 2.24-2.24z"/><path d="M5.52 8.24c.64 0 1.12-.48 1.12-1.12S6.16 6 5.52 6c-.56 0-1.12.48-1.12 1.12s.48 1.12 1.12 1.12zM14.88 4.88h-1.12v3.76h1.12V4.88zM12.24 4.88h-1.12v3.76h1.12V4.88z"/></symbol><symbol id="icon-soldier" viewBox="0 0 27 32"><path d="M23.902 7.102c0-3.135-2.482-6.139-5.616-6.661a30.396 30.396 0 0 0-10.318 0C4.899.963 2.352 3.968 2.352 7.102v1.959h21.551V7.102zM26.253 17.355v-3.396c0-1.567-1.698-1.829-2.286-2.22h-.065v-.98H2.351v.98h-.065l-1.241.588C.392 12.654 0 13.241 0 13.96v3.396c0 .718.392 1.306 1.045 1.633l1.241.588c-.196 1.175-.784 2.286-1.633 3.2-.327.327-.327.849 0 1.241L2.09 25.52c.522.522.457.849 1.502 3.788.261.718 1.045 1.175 1.763.98 1.306-.261 2.482-.522 3.657-.653.392 1.11 1.371 1.763 2.416 1.763h3.396c1.11 0 2.09-.653 2.482-1.763 1.175.131 2.416.392 3.657.653.784.196 1.567-.261 1.763-.98.327-1.045.784-2.416 1.045-3.069.196-.653.588-.849 1.894-2.22.327-.327.327-.849 0-1.241a5.804 5.804 0 0 1-1.633-3.2c.522-.392 2.22-.653 2.22-2.22zm-23.902.849-.784-.392c-.196-.065-.327-.261-.327-.522v-3.396c0-.196.131-.392.327-.522l.784-.327v5.159zm2.22-4.571c-.196-.457.131-.98.522-.98h5.943c.457 0 .718.522.522.98-.653 1.567-2.024 2.547-3.527 2.547s-2.808-.98-3.461-2.547zm1.96 13.91c-.718 0-1.306-.588-1.306-1.306s.588-1.306 1.306-1.306c.718 0 1.306.588 1.306 1.306s-.588 1.306-1.306 1.306zm8.294 2.547h-3.396c-1.045 0-1.698-1.175-1.11-2.09l1.698-2.482a1.281 1.281 0 0 1 2.155 0L15.87 28c.653.849 0 2.09-1.045 2.09zm3.33-8.816c-.196.261-.588.327-.914.131-4.18-3.331-8.098-.131-8.294 0a.7.7 0 0 1-.914-.065.7.7 0 0 1 .065-.914c.065-.065 4.833-4.049 9.861 0 .392.131.392.588.196.849zm1.567 6.269c-.718 0-1.306-.588-1.306-1.306s.588-1.306 1.306-1.306a1.31 1.31 0 0 1 1.306 1.306c-.065.718-.653 1.306-1.306 1.306zm1.96-13.91c-.653 1.567-2.024 2.547-3.527 2.547s-2.873-.98-3.527-2.547c-.196-.457.131-.98.522-.98h5.943c.457 0 .784.522.588.98zm3.33 3.722c0 .522-.588.588-1.11.849v-5.159c.457.261 1.11.327 1.11.849v3.461z"/></symbol><symbol id="icon-star" viewBox="0 0 31 32"><path d="M20.654 4.445a2.386 2.386 0 0 0-1.83 1.83h1.83v-1.83zM21.634 4.445v1.83h1.83a2.386 2.386 0 0 0-1.83-1.83zM20.654 9.085v-1.83h-1.83c.131.915.915 1.634 1.83 1.83zM23.464 7.255h-1.83v1.83a2.386 2.386 0 0 0 1.83-1.83zM31.373 15.49a3.68 3.68 0 0 0-4.51 3.595c0 1.765 1.242 3.203 2.876 3.595 1.111-2.157 1.634-4.575 1.634-7.19z"/><path d="M30.261 9.869C27.973 4.117 22.287 0 15.686 0A15.617 15.617 0 0 0 3.529 5.752c1.307-.065 2.68-.131 4.118-.327.327-.065.654.196.719.588s-.196.719-.588.719c-1.83.261-3.595.392-5.294.392A7.308 7.308 0 0 0 1.7 8.497c2.876.131 6.013-.131 9.216-.784.327-.065.719.131.784.523.065.327-.131.719-.523.784-3.268.654-6.667 1.046-10.065.784-.196.458-.327.85-.458 1.307 4.837.523 9.412-.261 12.745-1.111.327-.065.719.131.784.458s-.131.719-.458.784c-4.379 1.111-9.02 1.634-13.399 1.111-.065.392-.131.85-.196 1.242 4.967.719 10.588.196 16.209-1.569.327-.131.719.065.85.392s-.065.719-.392.85C11.372 14.967 5.555 15.752 0 14.902v1.503c7.386 1.046 22.288-1.373 30.261-6.536zm-9.15-6.797a3.724 3.724 0 0 1 3.726 3.725c0 2.026-1.634 3.726-3.726 3.726s-3.726-1.634-3.726-3.726c.065-2.091 1.699-3.725 3.726-3.725z"/><path d="M25.882 19.085c0-2.81 2.549-5.098 5.425-4.575-.065-1.176-.327-2.288-.654-3.399C22.679 16.078 8.235 18.889.13 17.843l.196 1.176c5.163.915 11.046.458 16.993-1.503.327-.131.719.065.85.392s-.065.719-.392.85C12.352 20.523 6.404 21.242.718 20.392c.131.458.327.915.523 1.373 5.098.85 10.065.196 13.66-.654.327-.065.719.131.784.457s-.131.719-.523.784c-4.314.98-8.824 1.373-13.268.784.261.523.588.98.85 1.438 3.137.392 6.601.327 10.327-.261.392-.065.719.196.719.523.065.327-.196.719-.523.719-3.856.654-6.797.654-9.412.458.458.523.98 1.046 1.503 1.503a34.49 34.49 0 0 0 7.255-.327c.327-.065.719.196.719.588.065.327-.196.719-.588.719a40.695 40.695 0 0 1-5.621.392c2.484 1.569 5.359 2.549 8.497 2.549 5.817 0 10.85-3.137 13.595-7.843-1.895-.588-3.333-2.353-3.333-4.51zm-3.725 9.085c-1.765 0-3.203-1.438-3.203-3.203s1.438-3.203 3.203-3.203a3.208 3.208 0 0 1 3.203 3.203c-.065 1.765-1.438 3.203-3.203 3.203z"/><path d="M22.157 27.19a2.222 2.222 0 1 0 0-4.444 2.222 2.222 0 0 0 0 4.444z"/></symbol><symbol id="icon-swords" viewBox="0 0 46 32"><path d="M42.058 28.404c.188-.188.188-.565 0-.753l-5.271-5.271c-.188-.188-.565-.188-.753 0l-.094.188c-.188.188-.188.565 0 .753l5.271 5.271c.188.188.565.188.753 0l.094-.188zM42.717 27.086c.188.188.565.188.753 0l.094-.094c.188-.188.188-.565 0-.753l-5.271-5.271c-.188-.188-.565-.188-.753 0l-.094.094c-.188.188-.188.565 0 .753l5.271 5.271zM35.374 23.886c-.188-.188-.565-.188-.753 0l-.094.094c-.188.188-.188.565 0 .753l5.271 5.271c.188.188.565.188.753 0l.094-.094c.188-.188.188-.565 0-.753l-5.271-5.271zM45.258 28.498a.739.739 0 0 0-1.035 0l-2.165 2.165c-.282.282-.282.753 0 1.035s.753.282 1.035 0l2.165-2.165a.739.739 0 0 0 0-1.035zM35.939 18.614l.188-.188a.739.739 0 0 0 0-1.035l-.188-.188a.739.739 0 0 0-1.035 0l-.188.188-2.541-2.541-2.165 5.365.941.941-.188.188a.739.739 0 0 0 0 1.035l.188.188a.739.739 0 0 0 1.035 0l.188-.188.941.941 3.765-3.765-.941-.941zM.828 27.839l.565.565-1.13 1.13 2.447 2.447 1.13-1.13.471.565 3.577-3.577-3.577-3.483-3.483 3.483zM6.441 22.193l-1.065 1.065 3.528 3.528 1.065-1.065-3.528-3.528zM8.553 20.139l-1.065 1.065 3.528 3.528 1.065-1.065-3.528-3.528zM10.133 17.553l-1.065 1.065 4.526 4.526 1.065-1.065-4.526-4.526zM25.585 10.237l-1.788 1.788 5.554 5.93 1.224-3.012-4.989-4.707zM21.819 6.754 14.665.071l-1.13 1.035 6.777 7.154 1.506-1.506zM31.891 2.141c.376-.471.376-1.224 0-1.6l-.188-.188c-.471-.471-1.224-.471-1.6 0L12.595 17.861l1.788 1.788L31.891 2.141z"/></symbol><symbol id="icon-twitter" viewBox="0 0 41 32"><path d="M40.395 3.765a16.117 16.117 0 0 1-4.631 1.299 8.098 8.098 0 0 0 3.539-4.48 16.253 16.253 0 0 1-5.12 1.976C32.696.941 30.607 0 28.235 0c-4.424 0-8.038 3.614-8.038 8.075 0 .64.075 1.261.207 1.845a22.956 22.956 0 0 1-16.64-8.433 7.995 7.995 0 0 0-1.092 4.047c0 2.805 1.412 5.289 3.595 6.701-1.336 0-2.579-.376-3.671-.941v.056c0 3.915 2.786 7.191 6.475 7.925a7.952 7.952 0 0 1-3.633.132 8.056 8.056 0 0 0 7.529 5.61 16.04 16.04 0 0 1-10.033 3.464c-.64 0-1.28-.038-1.92-.113A22.864 22.864 0 0 0 13.4 32.001c14.833 0 22.983-12.311 22.983-22.984 0-.358 0-.696-.019-1.054 1.581-1.129 2.936-2.56 4.028-4.198z"/></symbol><symbol id="icon-youtube" viewBox="0 0 46 32"><path d="M18.286 22.857 30.149 16 18.286 9.143v13.714zM44.709 4.96c.297 1.074.503 2.514.64 4.343.16 1.829.229 3.406.229 4.777l.137 1.92c0 5.006-.366 8.686-1.006 11.04-.571 2.057-1.897 3.383-3.954 3.954-1.074.297-3.04.503-6.057.64-2.971.16-5.691.229-8.206.229L22.858 32c-9.577 0-15.543-.366-17.897-1.006-2.057-.571-3.383-1.897-3.954-3.954-.297-1.074-.503-2.514-.64-4.343a55.024 55.024 0 0 1-.229-4.777L.001 16c0-5.006.366-8.686 1.006-11.04.571-2.057 1.897-3.383 3.954-3.954 1.074-.297 3.04-.503 6.057-.64 2.971-.16 5.691-.229 8.206-.229L22.858 0c9.577 0 15.543.366 17.897 1.006 2.057.571 3.383 1.897 3.954 3.954z"/></symbol></defs></svg>