<svg width="60" height="42" viewBox="0 0 60 42" fill="none" xmlns="http://www.w3.org/2000/svg">
<path d="M55.2005 37.2803C55.4476 37.0332 55.4476 36.539 55.2005 36.2919L48.2819 29.3733C48.0348 29.1262 47.5406 29.1262 47.2935 29.3733L47.1699 29.6204C46.9228 29.8675 46.9228 30.3617 47.1699 30.6088L54.0886 37.5274C54.3356 37.7745 54.8298 37.7745 55.0769 37.5274L55.2005 37.2803Z" fill="#FFC700"/>
<path d="M56.0654 35.5506C56.3125 35.7977 56.8066 35.7977 57.0537 35.5506L57.1773 35.427C57.4244 35.1799 57.4244 34.6857 57.1773 34.4387L50.2587 27.52C50.0116 27.2729 49.5174 27.2729 49.2703 27.52L49.1467 27.6436C48.8997 27.8907 48.8997 28.3849 49.1467 28.632L56.0654 35.5506Z" fill="#FFC700"/>
<path d="M46.4286 31.3501C46.1815 31.103 45.6873 31.103 45.4402 31.3501L45.3167 31.4737C45.0696 31.7208 45.0696 32.2149 45.3167 32.462L52.2353 39.3807C52.4824 39.6277 52.9766 39.6277 53.2237 39.3807L53.3472 39.2571C53.5943 39.01 53.5943 38.5158 53.3472 38.2687L46.4286 31.3501Z" fill="#FFC700"/>
<path d="M59.4012 37.4037C59.0305 37.0331 58.4128 37.0331 58.0422 37.4037L55.2006 40.2453C54.8299 40.6159 54.8299 41.2337 55.2006 41.6043C55.5712 41.9749 56.189 41.9749 56.5596 41.6043L59.4012 38.7627C59.7718 38.3921 59.7718 37.7744 59.4012 37.4037Z" fill="#FFC700"/>
<path d="M47.1699 24.4311L47.417 24.184C47.7877 23.8134 47.7877 23.1957 47.417 22.825L47.1699 22.5779C46.7993 22.2073 46.1815 22.2073 45.8109 22.5779L45.5638 22.825L42.2281 19.4893L39.3865 26.5314L40.6219 27.7669L40.3749 28.014C40.0042 28.3846 40.0042 29.0024 40.3749 29.373L40.6219 29.6201C40.9926 29.9907 41.6103 29.9907 41.981 29.6201L42.2281 29.373L43.4635 30.6085L48.4054 25.6666L47.1699 24.4311Z" fill="#FFC700"/>
<path d="M1.08698 36.539L1.82826 37.2803L0.345703 38.7628L3.55792 41.9751L5.04048 40.4925L5.65821 41.2338L10.353 36.539L5.65821 31.9678L1.08698 36.539Z" fill="#FFC700"/>
<path d="M8.45342 29.1284L7.05566 30.5261L11.6857 35.1562L13.0835 33.7584L8.45342 29.1284Z" fill="#FFC700"/>
<path d="M11.2264 26.4328L9.82861 27.8306L14.4587 32.4606L15.8564 31.0629L11.2264 26.4328Z" fill="#FFC700"/>
<path d="M13.3001 23.0385L11.9023 24.4363L17.8428 30.3768L19.2406 28.979L13.3001 23.0385Z" fill="#FFC700"/>
<path d="M33.5798 13.4358L31.2324 15.7832L38.5217 23.5666L40.1278 19.6131L33.5798 13.4358Z" fill="#FFC700"/>
<path d="M28.638 8.86435L19.2484 0.0925293L17.7659 1.45154L26.6612 10.8411L28.638 8.86435Z" fill="#FFC700"/>
<path d="M41.8574 2.81069C42.3515 2.19296 42.3515 1.20458 41.8574 0.710395L41.6103 0.4633C40.9925 -0.154433 40.0042 -0.154433 39.51 0.4633L16.5303 23.443L18.8777 25.7904L41.8574 2.81069Z" fill="#FFC700"/>
</svg>
